<svg xmlns="http://www.w3.org/2000/svg" xmlns:xlink="http://www.w3.org/1999/xlink" id="Layer_1" viewBox="0 0 944.54 136.43"><defs><linearGradient id="linear-gradient" x1="15.7" x2="299.44" y1="36.86" y2="36.86" gradientUnits="userSpaceOnUse"><stop offset="0" stop-color="#3fcebb"/><stop offset="1" stop-color="#00d5e0"/></linearGradient><linearGradient xlink:href="#linear-gradient" id="linear-gradient-2" x1="7.91" x2="331.85" y1="52.01" y2="52.01"/><linearGradient xlink:href="#linear-gradient" id="linear-gradient-3" x1="7.91" x2="331.85" y1="52.85" y2="52.85"/><linearGradient xlink:href="#linear-gradient" id="linear-gradient-4" x1="7.91" x2="331.85" y1="94.76" y2="94.76"/><linearGradient xlink:href="#linear-gradient" id="linear-gradient-5" x1="7.91" x2="331.85" y1="89.7" y2="89.7"/><linearGradient xlink:href="#linear-gradient" id="linear-gradient-6" x1="2.52" x2="339.74" y1="38.43" y2="38.43"/><linearGradient xlink:href="#linear-gradient" id="linear-gradient-7" x1="3.65" x2="337.51" y1="82.44" y2="82.44"/><linearGradient xlink:href="#linear-gradient" id="linear-gradient-8" x1="7.91" x2="331.85" y1="42.28" y2="42.28"/><linearGradient xlink:href="#linear-gradient" id="linear-gradient-9" x1="10.25" x2="329.31" y1="28.97" y2="28.97"/><linearGradient xlink:href="#linear-gradient" id="linear-gradient-10" x1="5.24" x2="281.63" y1="31.23" y2="31.23"/><linearGradient xlink:href="#linear-gradient" id="linear-gradient-11" x1="-24.41" x2="348.25" y1="-3250.66" y2="-3250.66" gradientTransform="rotate(-180 16.065 -1583.185)"/><linearGradient xlink:href="#linear-gradient" id="linear-gradient-12" x1="-1.23" x2="353.07" y1="58.25" y2="58.25"/><linearGradient xlink:href="#linear-gradient" id="linear-gradient-13" x1="1.26" x2="331.05" y1="39.75" y2="39.75"/><linearGradient xlink:href="#linear-gradient" id="linear-gradient-14" x1="-39.83" x2="542.4" y1="42.81" y2="42.81"/><linearGradient xlink:href="#linear-gradient" id="linear-gradient-15" x1="171.71" x2="637.68" y1="-3221.91" y2="-3221.91" gradientTransform="rotate(-180 144.71 -1567)"/><linearGradient xlink:href="#linear-gradient" id="linear-gradient-16" x1="173.49" x2="595.72" y1="-3213.83" y2="-3213.83" gradientTransform="rotate(-180 144.71 -1567)"/><linearGradient xlink:href="#linear-gradient" id="linear-gradient-17" x1=".54" x2="334.05" y1="68.21" y2="68.21"/><style>.cls-6{fill:#fff}</style></defs><g id="Invert-W-AIXR"><path d="M104.59 18.53H77.44l11.12 36.66 16.03-36.66z" style="fill:url(#linear-gradient)"/><path d="m123.01 60.34 26.36 19.49 16.72-55.64-43.08 36.15z" style="fill:url(#linear-gradient-2)"/><path d="m169.73 25.39-16.51 54.92 29.96-7.37-13.45-47.55z" style="fill:url(#linear-gradient-3)"/><path d="m124.22 102.95 24.31-.02-.01-16.37-24.3 16.39z" style="fill:url(#linear-gradient-4)"/><path d="m153.95 84.07 16.59 18.85 33.19-.03-18.97-26.4-30.81 7.58z" style="fill:url(#linear-gradient-5)"/><path d="M119 18.53v39.81l20.43-16.59L119 18.53z" style="fill:url(#linear-gradient-6)"/><path d="M119 61.93v41.02l28.09-20.04L119 61.93z" style="fill:url(#linear-gradient-7)"/><path d="m194.25 18.54-22.48.02 13.43 47.45 9.05-47.47z" style="fill:url(#linear-gradient-8)"/><path d="m166.76 18.71-43.75-.18 19.29 20.89 24.46-20.71z" style="fill:url(#linear-gradient-9)"/><path d="M39.28 18.53H14.01l25.27 25.41V18.53z" style="fill:url(#linear-gradient-10)"/><path d="M10.64 102.95h34.07L27.94 65.62l-17.3 37.33z" style="fill:url(#linear-gradient-11)"/><path d="m267.64 115.59-2.89 7.7h-14.71l20.55-48.18h14.71l19.87 48.18h-15.26l-2.82-7.7h-19.45Zm9.9-26.19-5.91 15.74h11.68l-5.77-15.74ZM344.15 123.29l-7.7-30.72-7.84 30.72H313.9l-15.67-48.18h15.26l8.25 33.34 8.04-33.27 13.95-.07 8.25 33.34 8.04-33.34h14.64l-15.81 48.18h-14.71ZM385.12 115.59l-2.89 7.7h-14.71l20.55-48.18h14.71l19.87 48.18h-15.26l-2.82-7.7h-19.45Zm9.89-26.19-5.91 15.74h11.68l-5.77-15.74ZM445.74 110.29h-7.56v12.99h-14.3V75.1h22.48c12.92 0 20.34 6.19 20.34 17.12 0 7.15-2.89 12.37-8.11 15.33l9.76 15.74h-16.22l-6.39-12.99Zm.62-10.99c4.26 0 6.74-2.34 6.74-6.67s-2.48-6.53-6.74-6.53h-8.18v13.2h8.18ZM492.56 75.1c15.6 0 25.91 9.55 25.91 24.06s-10.52 24.13-26.39 24.13h-20.62V75.11h21.1Zm-6.81 36.98h7.21c6.53 0 10.93-5.09 10.93-12.78s-4.74-12.92-11.62-12.92h-6.53v25.71ZM561.5 80.06l-5.29 11c-4.95-2.82-11.96-5.36-16.02-5.36-2.41 0-3.99.83-3.99 2.61 0 7.08 25.15 2.89 25.15 20.28 0 10.24-9.07 15.12-19.86 15.12-8.18 0-17.11-2.89-23.16-7.63l5.36-10.86c4.95 4.19 12.99 7.36 17.94 7.36 3.02 0 4.95-1.03 4.95-3.23 0-7.28-25.16-2.68-25.16-19.66 0-9.28 7.91-15.19 19.93-15.19 7.35 0 14.91 2.2 20.14 5.57Z" class="cls-6"/><path d="m11.13 20.67 34.72 75.17 11.37-27.63-46.09-47.54z" style="fill:url(#linear-gradient-12)"/><path d="m42.82 18.53.21 29.48 11.75 12.96-11.96-42.44z" style="fill:url(#linear-gradient-13)"/><path d="M85.15 58 72.6 18.53 60.05 67.09 85.15 58z" style="fill:url(#linear-gradient-14)"/><path d="M75.17 102.95h27.75l-42.6-30.08 14.85 30.08z" style="fill:url(#linear-gradient-15)"/><path d="M102.53 97.82 86.21 61.83l-22.29 8.33 38.61 27.66z" style="fill:url(#linear-gradient-16)"/><path d="M337.32 48.34h-7.56v12.99h-14.3V13.15h22.48c12.92 0 20.34 6.19 20.34 17.12 0 7.15-2.89 12.37-8.11 15.33l9.76 15.74h-16.22l-6.39-12.99Zm.62-11c4.26 0 6.74-2.34 6.74-6.67s-2.48-6.53-6.74-6.53h-8.18v13.2h8.18ZM294.04 61.22l-8.82-14.74-8.82 14.74h-17.2l16.12-24.72-15.03-23.49h17.13l7.81 13.73 7.66-13.73h17.27l-15.03 23.41 16.12 24.79h-17.2Z" class="cls-6"/><path d="m231.39 119.39-22.65-31.53 10.98-57.57c.21-1.1-.08-2.24-.8-3.1-.59-.72-17.87-14.83-17.87-14.83a3.733 3.733 0 0 0-2.33-1.32c-.17-.03-112.75.25-129.46.29-1.25 0-2.37.76-2.85 1.91l-5.04 12.14-10.96-12.93c-.6-.71-1.48-1.11-2.4-1.11l-45.98.03c-1.47 0-2.45 1.52-1.83 2.86l21.34 46.51-20.34 44.2c-.69 1.5-.19 3.28 1.18 4.2 5.52 3.69 19.12 12.7 23.26 15.44.8.53 1.72.8 2.68.8h28.5c1 0 1.91-.6 2.29-1.53l5.58-16.2 7.27 14.66a5.467 5.467 0 0 0 4.9 3.04h30.08c2.44.01 4.46-1.9 4.59-4.34l.2-3.73 5.2 6.39c.87 1.07 2.18 1.7 3.56 1.7l49.02.02c1 0 2.66-1.1 2.66-1.1s1.1-1.66 1.1-2.66v-8.74l9.86 11.21c.59.67 1.39 1.1 2.25 1.23.19.03 42.96.01 42.96.01 1.41 0 2.7-.79 3.35-2.05.64-1.26.53-2.77-.29-3.91Zm-158.63-12.6-14.84-30.3-12.18 30.32-41-.02 21.33-46.03L5.24 14.69h40.44l12.37 44.28 12.12-44.28h40.39L89.77 60.74l21.27 46.03H72.78Zm95.32 0-16.46-18.71v18.72h-36.44V14.69h82.89l-.01.07h.1L186.88 73.9l8.25 11.49 15.35 21.36-42.38.03Z" style="fill:url(#linear-gradient-17)"/><path d="M745.57 50.1h23.63v73.43h-23.63V50.1ZM804.45 50.1l15.83 20.46 16.04-20.46h25.53l-28.48 36.08 29.96 37.35h-25.95l-16.88-21.52-16.88 21.52h-26.17l29.96-37.35-28.48-36.08h25.53ZM896.66 123.52h-23.63V50.1h23.63v9.49c5.06-7.59 12.66-11.6 20.68-11.6 4.43 0 8.23 1.48 11.81 3.59l-6.12 19.2c-2.95-1.26-6.33-1.9-9.28-1.9-9.07 0-17.09 5.06-17.09 21.94v32.7Z" class="cls-6"/><path d="M944.54 112.34c0 7.81-6.33 13.92-14.14 13.92s-13.92-6.12-13.92-13.92S922.6 98.2 930.4 98.2s14.14 6.33 14.14 14.14Z" style="fill:#0037f9"/><path d="M729.52 50.1v73.56H709.6v-8.25c-4.41 5.69-11.81 7.97-18.5 7.97-20.2.14-36.71-16.22-36.85-36.43-.14-20.21 16.22-36.71 36.43-36.85 6.97 0 14.51 2.56 18.93 8.11V50.1h19.92Zm-20.63 36.56c0-4.84-1.85-9.39-5.41-12.8-3.41-3.41-7.97-5.27-12.66-5.12-4.84 0-9.39 1.85-12.8 5.26-3.41 3.41-5.27 7.97-5.27 12.8s1.99 9.39 5.41 12.81c3.41 3.41 7.97 5.26 12.8 5.26 4.84-.14 9.39-1.99 12.66-5.4 3.41-3.41 5.27-7.97 5.27-12.81ZM655.67 26.82V13.48h6.56c2.44 0 3.8 1.52 3.8 3.4 0 1.68-1.08 2.8-2.32 3.06 1.42.22 2.58 1.64 2.58 3.28 0 2.06-1.38 3.6-3.88 3.6h-6.74Zm2.34-7.82h3.74c1.2 0 1.88-.72 1.88-1.72s-.68-1.74-1.88-1.74h-3.74V19Zm0 5.76h3.84c1.28 0 2.04-.7 2.04-1.86 0-1-.7-1.84-2.04-1.84h-3.84v3.7ZM677.64 26.82l-2.96-4.98h-2.32v4.98h-2.34V13.48h5.86c2.64 0 4.36 1.72 4.36 4.18s-1.56 3.66-3.16 3.92l3.26 5.24h-2.7Zm-2.09-11.28h-3.2v4.24h3.2c1.32 0 2.28-.84 2.28-2.12s-.96-2.12-2.28-2.12ZM690.18 13.26c4 0 6.82 2.92 6.82 6.9s-2.82 6.9-6.82 6.9-6.82-2.92-6.82-6.9 2.82-6.9 6.82-6.9Zm0 2.08c-2.7 0-4.42 2.06-4.42 4.82s1.72 4.82 4.42 4.82 4.42-2.08 4.42-4.82-1.74-4.82-4.42-4.82ZM700.63 13.48h2.36v8c0 2.12 1.18 3.5 3.42 3.5s3.4-1.38 3.4-3.5v-8h2.36v8.06c0 3.32-1.9 5.52-5.76 5.52s-5.78-2.22-5.78-5.5v-8.08ZM722.8 13.26c2.6 0 4.3 1.24 5.38 2.78l-1.92 1.08c-.7-1-1.96-1.78-3.46-1.78-2.64 0-4.6 2.02-4.6 4.82s1.96 4.84 4.6 4.84c1.36 0 2.56-.64 3.16-1.2v-2.08h-3.98v-2.06h6.32v5c-1.32 1.46-3.18 2.42-5.5 2.42-3.86 0-7-2.74-7-6.92s3.14-6.9 7-6.9ZM741.4 26.82V21h-6.94v5.82h-2.34V13.48h2.34v5.46h6.94v-5.46h2.34v13.34h-2.34ZM751.13 26.82V15.54h-4.04v-2.06h10.42v2.06h-4.04v11.28h-2.34ZM770.57 26.82V15.54h-4.04v-2.06h10.42v2.06h-4.04v11.28h-2.34ZM786.03 13.26c4 0 6.82 2.92 6.82 6.9s-2.82 6.9-6.82 6.9-6.82-2.92-6.82-6.9 2.82-6.9 6.82-6.9Zm0 2.08c-2.7 0-4.42 2.06-4.42 4.82s1.72 4.82 4.42 4.82 4.42-2.08 4.42-4.82-1.74-4.82-4.42-4.82ZM806.79 26.82v-5.54l-5.18-7.8h2.68l3.68 5.72 3.64-5.72h2.68l-5.16 7.8v5.54h-2.34ZM822.55 13.26c4 0 6.82 2.92 6.82 6.9s-2.82 6.9-6.82 6.9-6.82-2.92-6.82-6.9 2.82-6.9 6.82-6.9Zm0 2.08c-2.7 0-4.42 2.06-4.42 4.82s1.72 4.82 4.42 4.82 4.42-2.08 4.42-4.82-1.74-4.82-4.42-4.82ZM833.01 13.48h2.36v8c0 2.12 1.18 3.5 3.42 3.5s3.4-1.38 3.4-3.5v-8h2.36v8.06c0 3.32-1.9 5.52-5.76 5.52s-5.78-2.22-5.78-5.5v-8.08ZM855.29 26.82V13.48h6.56c2.44 0 3.8 1.52 3.8 3.4 0 1.68-1.08 2.8-2.32 3.06 1.42.22 2.58 1.64 2.58 3.28 0 2.06-1.38 3.6-3.88 3.6h-6.74Zm2.34-7.82h3.74c1.2 0 1.88-.72 1.88-1.72s-.68-1.74-1.88-1.74h-3.74V19Zm0 5.76h3.84c1.28 0 2.04-.7 2.04-1.86 0-1-.7-1.84-2.04-1.84h-3.84v3.7ZM872.81 26.82v-5.54l-5.18-7.8h2.68l3.68 5.72 3.64-5.72h2.68l-5.16 7.8v5.54h-2.34Z" class="cls-6"/><path d="M591.46 0h1.4v136.43h-1.4z" style="fill:#ababb4"/></g></svg>